# WaveFront *.obj file (generated by Autodesk ATF)

mtllib sparkles.mtl

g Solid1

v -11.785833 8.072183 0.000000
v -11.785833 8.072183 2.000000
v -9.692699 4.403232 0.000000
v -9.692699 4.403232 2.000000
v -9.692699 11.409568 0.000000
v -9.692699 11.409568 2.000000
v -8.551252 -1.092567 0.000000
v -8.551252 -1.092567 2.000000
v -7.599566 8.072183 0.000000
v -7.599566 8.072183 2.000000
v -7.475984 -2.977354 0.000000
v -7.475984 -2.977354 2.000000
v -7.475984 0.621890 0.000000
v -7.475984 0.621890 2.000000
v -6.400714 -1.092567 0.000000
v -6.400714 -1.092567 2.000000
v -3.911852 0.000000 0.000000
v -3.911852 0.000000 2.000000
v 0.000000 -6.584950 0.000000
v 0.000000 -6.584950 2.000000
v 0.000000 6.237230 0.000000
v 0.000000 6.237230 2.000000
v 3.911852 0.000000 0.000000
v 3.911852 0.000000 2.000000
vt 0.000000 0.000000 0.000000
vt 0.765925 0.000000 0.000000
vt 0.765925 0.200000 0.000000
vt 0.000000 0.200000 0.000000
vt 0.000000 0.000000 0.000000
vt 0.736245 0.000000 0.000000
vt 0.736245 0.200000 0.000000
vt 0.000000 0.200000 0.000000
vt 0.000000 0.000000 0.000000
vt 0.736245 0.000000 0.000000
vt 0.736245 0.200000 0.000000
vt 0.000000 0.200000 0.000000
vt 0.000000 0.000000 0.000000
vt 0.765925 0.000000 0.000000
vt 0.765925 0.200000 0.000000
vt 0.000000 0.200000 0.000000
vt -0.105522 -0.642382 0.000000
vt 0.285663 0.016113 0.000000
vt -0.105522 0.639836 0.000000
vt -0.496707 0.016113 0.000000
vt 0.105522 0.639836 0.000000
vt -0.285663 0.016113 0.000000
vt 0.105522 -0.642382 0.000000
vt 0.496707 0.016113 0.000000
vt 0.000000 0.000000 0.000000
vt 0.422403 0.000000 0.000000
vt 0.422403 0.200000 0.000000
vt 0.000000 0.200000 0.000000
vt 0.000000 0.000000 0.000000
vt 0.393946 0.000000 0.000000
vt 0.393946 0.200000 0.000000
vt 0.000000 0.200000 0.000000
vt 0.000000 0.000000 0.000000
vt 0.393946 0.000000 0.000000
vt 0.393946 0.200000 0.000000
vt 0.000000 0.200000 0.000000
vt 0.000000 0.000000 0.000000
vt 0.422403 0.000000 0.000000
vt 0.422403 0.200000 0.000000
vt 0.000000 0.200000 0.000000
vt -0.056320 -0.351492 0.000000
vt 0.152993 0.015403 0.000000
vt -0.056320 0.349142 0.000000
vt -0.265633 0.015403 0.000000
vt 0.056320 0.349142 0.000000
vt -0.152993 0.015403 0.000000
vt 0.056320 -0.351492 0.000000
vt 0.265633 0.015403 0.000000
vt 0.000000 0.000000 0.000000
vt 0.216994 0.000000 0.000000
vt 0.216994 0.200000 0.000000
vt 0.000000 0.200000 0.000000
vt 0.000000 0.000000 0.000000
vt 0.202375 0.000000 0.000000
vt 0.202375 0.200000 0.000000
vt 0.000000 0.200000 0.000000
vt 0.000000 0.000000 0.000000
vt 0.202375 0.000000 0.000000
vt 0.202375 0.200000 0.000000
vt 0.000000 0.200000 0.000000
vt 0.000000 0.000000 0.000000
vt 0.216994 0.000000 0.000000
vt 0.216994 0.200000 0.000000
vt 0.000000 0.200000 0.000000
vt -0.028932 -0.180566 0.000000
vt 0.078595 0.007913 0.000000
vt -0.028932 0.179359 0.000000
vt -0.136459 0.007913 0.000000
vt 0.028932 0.179359 0.000000
vt -0.078595 0.007913 0.000000
vt 0.028932 -0.180566 0.000000
vt 0.136459 0.007913 0.000000
vn -0.085974 -0.051074 0.000000
vn -0.085974 -0.051074 0.000000
vn -0.085974 -0.051074 0.000000
vn -0.085974 -0.051074 0.000000
vn -0.084717 0.053132 0.000000
vn -0.084717 0.053132 0.000000
vn -0.084717 0.053132 0.000000
vn -0.084717 0.053132 0.000000
vn 0.084717 0.053132 0.000000
vn 0.084717 0.053132 0.000000
vn 0.084717 0.053132 0.000000
vn 0.084717 0.053132 0.000000
vn 0.085974 -0.051074 0.000000
vn 0.085974 -0.051074 0.000000
vn 0.085974 -0.051074 0.000000
vn 0.085974 -0.051074 0.000000
vn 0.000000 0.000000 0.100000
vn 0.000000 0.000000 0.100000
vn 0.000000 0.000000 0.100000
vn 0.000000 0.000000 0.100000
vn 0.000000 0.000000 -0.100000
vn 0.000000 0.000000 -0.100000
vn 0.000000 0.000000 -0.100000
vn 0.000000 0.000000 -0.100000
vn -0.086859 -0.049553 0.000000
vn -0.086859 -0.049553 0.000000
vn -0.086859 -0.049553 0.000000
vn -0.086859 -0.049553 0.000000
vn -0.084717 0.053132 0.000000
vn -0.084717 0.053132 0.000000
vn -0.084717 0.053132 0.000000
vn -0.084717 0.053132 0.000000
vn 0.084717 0.053132 0.000000
vn 0.084717 0.053132 0.000000
vn 0.084717 0.053132 0.000000
vn 0.084717 0.053132 0.000000
vn 0.086859 -0.049553 0.000000
vn 0.086859 -0.049553 0.000000
vn 0.086859 -0.049553 0.000000
vn 0.086859 -0.049553 0.000000
vn 0.000000 0.000000 0.100000
vn 0.000000 0.000000 0.100000
vn 0.000000 0.000000 0.100000
vn 0.000000 0.000000 0.100000
vn 0.000000 0.000000 -0.100000
vn 0.000000 0.000000 -0.100000
vn 0.000000 0.000000 -0.100000
vn 0.000000 0.000000 -0.100000
vn -0.086859 -0.049553 0.000000
vn -0.086859 -0.049553 0.000000
vn -0.086859 -0.049553 0.000000
vn -0.086859 -0.049553 0.000000
vn -0.084717 0.053132 0.000000
vn -0.084717 0.053132 0.000000
vn -0.084717 0.053132 0.000000
vn -0.084717 0.053132 0.000000
vn 0.084717 0.053132 0.000000
vn 0.084717 0.053132 0.000000
vn 0.084717 0.053132 0.000000
vn 0.084717 0.053132 0.000000
vn 0.086859 -0.049553 0.000000
vn 0.086859 -0.049553 0.000000
vn 0.086859 -0.049553 0.000000
vn 0.086859 -0.049553 0.000000
vn 0.000000 0.000000 0.100000
vn 0.000000 0.000000 0.100000
vn 0.000000 0.000000 0.100000
vn 0.000000 0.000000 0.100000
vn 0.000000 0.000000 -0.100000
vn 0.000000 0.000000 -0.100000
vn 0.000000 0.000000 -0.100000
vn 0.000000 0.000000 -0.100000
usemtl 191,191,191
f 17/1/1 19/2/2 18/4/4
f 18/4/4 19/2/2 20/3/3
f 21/5/5 17/6/6 22/8/8
f 22/8/8 17/6/6 18/7/7
f 23/9/9 21/10/10 24/12/12
f 24/12/12 21/10/10 22/11/11
f 19/13/13 23/14/14 20/16/16
f 20/16/16 23/14/14 24/15/15
f 20/17/17 24/18/18 18/20/20
f 18/20/20 24/18/18 22/19/19
f 21/21/21 23/22/22 17/24/24
f 17/24/24 23/22/22 19/23/23
f 1/25/25 3/26/26 2/28/28
f 2/28/28 3/26/26 4/27/27
f 5/29/29 1/30/30 6/32/32
f 6/32/32 1/30/30 2/31/31
f 9/33/33 5/34/34 10/36/36
f 10/36/36 5/34/34 6/35/35
f 3/37/37 9/38/38 4/40/40
f 4/40/40 9/38/38 10/39/39
f 4/41/41 10/42/42 2/44/44
f 2/44/44 10/42/42 6/43/43
f 5/45/45 9/46/46 1/48/48
f 1/48/48 9/46/46 3/47/47
f 7/49/49 11/50/50 8/52/52
f 8/52/52 11/50/50 12/51/51
f 13/53/53 7/54/54 14/56/56
f 14/56/56 7/54/54 8/55/55
f 15/57/57 13/58/58 16/60/60
f 16/60/60 13/58/58 14/59/59
f 11/61/61 15/62/62 12/64/64
f 12/64/64 15/62/62 16/63/63
f 12/65/65 16/66/66 8/68/68
f 8/68/68 16/66/66 14/67/67
f 13/69/69 15/70/70 7/72/72
f 7/72/72 15/70/70 11/71/71

# 24 vertices
# 72 texture params
# 72 normals
# 36 facets

# 1 groups
